<?xml version="1.0" standalone="no"?>
<!DOCTYPE svg PUBLIC "-//W3C//DTD SVG 20010904//EN"
 "http://www.w3.org/TR/2001/REC-SVG-20010904/DTD/svg10.dtd">
<svg version="1.0" xmlns="http://www.w3.org/2000/svg"
 width="144.000000pt" height="144.000000pt" viewBox="0 0 144.000000 144.000000"
 preserveAspectRatio="xMidYMid meet">
<metadata>
Created by potrace 1.14, written by Peter Selinger 2001-2017
</metadata>
<g transform="translate(0.000000,144.000000) scale(0.100000,-0.100000)"
fill="#000000" stroke="none">
<path d="M327 1358 c-58 -12 -131 -53 -167 -94 -118 -135 -96 -344 48 -448
151 -111 363 -60 450 108 22 43 26 64 26 136 0 72 -4 93 -26 136 -64 122 -201
189 -331 162z"/>
<path d="M987 1358 c-86 -18 -168 -83 -209 -167 -33 -66 -33 -196 0 -262 111
-227 431 -230 542 -5 36 72 43 138 24 214 -40 154 -201 253 -357 220z"/>
<path d="M300 686 c-84 -27 -145 -79 -188 -161 -36 -70 -37 -187 -2 -259 30
-62 90 -122 150 -150 66 -30 198 -30 257 2 66 35 110 79 140 140 38 78 40 193
4 265 -30 62 -89 121 -149 148 -54 24 -158 32 -212 15z"/>
<path d="M975 685 c-168 -50 -265 -223 -215 -382 83 -265 451 -289 567 -37 72
158 -8 353 -169 410 -57 20 -135 24 -183 9z"/>
</g>
</svg>
